<!-- Generated by IcoMoon.io -->
<svg version="1.1" xmlns="http://www.w3.org/2000/svg" width="32" height="32" viewBox="0 0 32 32">
<path d="M7.25 26v0 0q1.344 0 2.297-0.953t0.953-2.297-0.953-2.297-2.297-0.953-2.297 0.953-0.953 2.297v0 0 0q0 1.344 0.953 2.297t2.297 0.953v0zM7.25 20.5v0 0q0.938 0 1.594 0.656t0.656 1.594-0.656 1.594-1.594 0.656-1.594-0.656-0.656-1.594v0q0-0.938 0.656-1.594t1.594-0.656v0zM24.563 26.5v0 0q0.844 0 1.453-0.609t0.609-1.453-0.609-1.453-1.453-0.609-1.453 0.609-0.609 1.453v0 0 0q0 0.844 0.609 1.453t1.453 0.609v0 0zM24.563 23.375v0 0q0.438 0 0.75 0.313t0.313 0.75-0.313 0.75-0.75 0.313-0.75-0.313-0.313-0.75v0q0-0.438 0.313-0.75t0.75-0.313v0 0zM29.5 21.5h-0.5v-4.094q0-1.188-0.859-2.047t-2.047-0.859h-2.594v-2q0-0.219-0.141-0.359t-0.359-0.141v0h-0.5v-2.219l1.281-0.875q0.094-0.063 0.156-0.172t0.063-0.234q0-0.219-0.141-0.359t-0.359-0.141q-0.094 0-0.156 0.016t-0.125 0.078v0l-1.5 1q-0.094 0.063-0.156 0.172t-0.063 0.234v0 2.5h-0.5q-0.219 0-0.359 0.141t-0.141 0.359v0 2h-1.125l-2.719-9.031q0.156-0.063 0.25-0.188t0.094-0.281v-1.125q0-0.563-0.406-0.969t-0.969-0.406h-9.25q-0.563 0-0.969 0.406t-0.406 0.969v1.125q0 0.188 0.109 0.313t0.266 0.156v0l-1.844 7.813-2.406 2.906q-0.063 0.063-0.094 0.141t-0.031 0.172q0 0.219 0.141 0.359t0.359 0.141h2.5q0.094 0 0.188-0.047t0.156-0.109l0.594-0.563 0.344 0.563q-1.875 0.625-3.078 2.234t-1.203 3.672q0 1.313 0.5 2.438 0.469 1.125 1.328 1.984t1.984 1.328q1.125 0.5 2.438 0.5 2.125 0 3.766-1.266t2.203-3.203l0.031-0.031h6.75q0.031 1.875 1.359 3.188t3.203 1.313 3.203-1.313 1.359-3.188v0h0.375q0.625 0 1.063-0.438t0.438-1.063-0.438-1.063-1.063-0.438v0 0zM26.094 15.5q0.781 0 1.344 0.563t0.563 1.344v4.063q-0.625-0.719-1.516-1.156t-1.922-0.438q-0.281 0-0.563 0.031t-0.531 0.125l0.031-0.031v-4.5h2.594zM21.5 13h1v7.375q-0.281 0.156-0.531 0.328t-0.469 0.359v0-8.063zM18.313 23.5l-1.063-2h1.25v2h-0.188zM4.625 13l1.781-7.5h1.094v7.5h-2.875zM8.5 5.5h1v7.5h-1v-7.5zM10.5 5.5h5.125l2.688 9h-1.031l-0.719-1.063 0.25-0.156q0.094-0.063 0.141-0.172t0.047-0.234q0-0.219-0.141-0.359t-0.359-0.141q-0.094 0-0.172 0.031t-0.141 0.063v0l-1.5 1.125q-0.094 0.063-0.141 0.172t-0.047 0.234q0 0.219 0.141 0.359t0.359 0.141q0.094 0 0.172-0.031t0.141-0.063v0l0.469-0.344 0.5 0.781q-0.344 0.25-0.563 0.656t-0.219 0.875v1.781l-2.563-4.875q-0.063-0.125-0.172-0.203t-0.266-0.078h-2v-7.5zM17.375 15.5h1.125v1h-2v-0.125q0-0.375 0.25-0.625t0.625-0.25v0zM16.5 17.5h2v1h-2v-1zM16.5 20.063v-0.563h2v1h-1.781zM6 3.875q0-0.156 0.109-0.266t0.266-0.109h9.25q0.156 0 0.266 0.109t0.109 0.266v0.625h-10v-0.625zM2.063 23.531l1.25-0.844q0.125-0.094 0.188-0.203t0.063-0.234q0-0.188-0.156-0.344t-0.344-0.156q-0.094 0-0.156 0.031l-0.125 0.063-0.75 0.5q0.063-0.781 0.328-1.469t0.703-1.25h-0.031l1.5 0.313h0.094q0.219 0 0.359-0.141t0.141-0.359q0-0.188-0.109-0.328t-0.297-0.172v0l-0.875-0.156q0.531-0.469 1.203-0.781t1.391-0.438h0.031l0.844 1.281q0.094 0.094 0.203 0.156t0.234 0.063q0.188 0 0.344-0.141t0.156-0.359q0-0.094-0.031-0.156l-0.063-0.125-0.5-0.75q0.781 0.063 1.469 0.328t1.25 0.703v0l-0.313 1.469v0.125q0 0.188 0.141 0.344t0.359 0.156q0.188 0 0.328-0.125t0.172-0.281v0l0.156-0.906q0.469 0.563 0.781 1.219t0.438 1.406v0.031l-1.281 0.844q-0.094 0.063-0.156 0.172t-0.063 0.234q0 0.219 0.141 0.359t0.359 0.141q0.063 0 0.141-0.016t0.141-0.047v0l0.75-0.531q-0.063 0.781-0.328 1.469t-0.703 1.281v-0.031l-1.469-0.281q-0.031 0-0.063-0.016t-0.063-0.016q-0.188 0-0.344 0.156t-0.156 0.344 0.125 0.328 0.281 0.172v0l0.906 0.188q-0.563 0.469-1.219 0.766t-1.406 0.422h-0.031l-0.844-1.25q-0.063-0.125-0.172-0.188t-0.234-0.063q-0.219 0-0.359 0.156t-0.141 0.344q0 0.094 0.016 0.156t0.047 0.125v0l0.531 0.75q-0.781-0.063-1.469-0.328t-1.281-0.703l0.031 0.031 0.281-1.5q0-0.031 0.016-0.047t0.016-0.047q0-0.219-0.156-0.359t-0.344-0.141-0.328 0.109-0.172 0.297v0l-0.188 0.875q-0.469-0.531-0.766-1.203t-0.422-1.391v-0.031zM7.25 16.5q-0.25 0-0.484 0.031t-0.484 0.063h0.031l-0.375-0.594h5.25l3.969 7.5h-1.719q0.031-0.156 0.047-0.344t0.016-0.406q0-1.281-0.5-2.438-0.5-1.125-1.344-1.969t-1.969-1.344q-1.156-0.5-2.438-0.5v0 0 0 0zM16.313 23.5l-4.375-8.219q-0.063-0.125-0.172-0.203t-0.266-0.078h-6.5q-0.094 0-0.188 0.047t-0.156 0.109l-0.875 0.844h-1.219l1.656-2h7.969l5 9.5h-0.875zM19.5 15.5h1v6.875q-0.125 0.25-0.234 0.531t-0.172 0.563v0.031h-0.594v-8zM21.094 25.188l0.625-0.438q0.094-0.094 0.156-0.188t0.063-0.219q0-0.219-0.141-0.359t-0.359-0.141q-0.063 0-0.141 0.016t-0.141 0.047v0l-0.125 0.094q0.063-0.406 0.203-0.781t0.359-0.719h-0.031l0.781 0.156h0.094q0.219 0 0.359-0.141t0.141-0.359q0-0.188-0.125-0.328t-0.281-0.172v0l-0.156-0.031q0.313-0.219 0.656-0.391t0.75-0.266h0.031l0.438 0.656q0.094 0.094 0.188 0.156t0.219 0.063q0.219 0 0.359-0.156t0.141-0.344q0-0.094-0.016-0.172t-0.047-0.141v0l-0.094-0.125q0.406 0.063 0.781 0.203t0.719 0.359v0l-0.156 0.75v0.094q0 0.219 0.141 0.359t0.359 0.141q0.188 0 0.328-0.109t0.172-0.297v0l0.031-0.156q0.219 0.313 0.391 0.672t0.266 0.734v0.031l-0.656 0.469q-0.094 0.063-0.156 0.172t-0.063 0.234q0 0.188 0.156 0.344t0.344 0.156q0.094 0 0.172-0.031t0.141-0.063v0l0.125-0.094q-0.063 0.438-0.203 0.813t-0.359 0.688v0l-0.75-0.156h-0.094q-0.219 0-0.359 0.156t-0.141 0.344 0.109 0.328 0.297 0.172v0l0.156 0.031q-0.313 0.219-0.672 0.391t-0.734 0.266h-0.031l-0.469-0.625q-0.063-0.094-0.172-0.156t-0.234-0.063q-0.188 0-0.344 0.141t-0.156 0.359q0 0.063 0.031 0.141t0.063 0.141v0l0.094 0.125q-0.438-0.063-0.813-0.203t-0.688-0.359v0.031l0.156-0.781v-0.094q0-0.188-0.156-0.344t-0.344-0.156-0.328 0.125-0.172 0.281v0l-0.031 0.156q-0.219-0.281-0.391-0.641t-0.266-0.766v-0.031zM29.5 23.5h-0.469q-0.063-0.281-0.156-0.531t-0.219-0.5l0.031 0.031h0.813q0.219 0 0.359 0.141t0.141 0.359-0.141 0.359-0.359 0.141v0zM25 18.5q0.219 0 0.359-0.141t0.141-0.359v0-1q0-0.219-0.141-0.359t-0.359-0.141-0.359 0.141-0.141 0.359v0 1q0 0.219 0.141 0.359t0.359 0.141v0zM26.5 18.5q0.219 0 0.359-0.141t0.141-0.359v0-1q0-0.219-0.141-0.359t-0.359-0.141-0.359 0.141-0.141 0.359v0 1q0 0.219 0.141 0.359t0.359 0.141v0z"></path>
</svg>
